<svg xmlns="http://www.w3.org/2000/svg" width="29.233" height="29.233" viewBox="0 0 29.233 29.233">
  <g id="cart" transform="translate(-106.402 -52.694)">
    <path id="Path_1" data-name="Path 1" d="M415.756,379.79a4.105,4.105,0,1,0,2.9,1.2,4.1,4.1,0,0,0-2.9-1.2Zm0,5.68a1.581,1.581,0,1,1,1.117-.462,1.581,1.581,0,0,1-1.117.462Z" transform="translate(-287.739 -306.068)"/>
    <path id="Path_2" data-name="Path 2" d="M134.442,57.45H114.824l-.477-2.131a3.444,3.444,0,0,0-1.125-1.892,3.047,3.047,0,0,0-1.978-.733h-3.667a1.163,1.163,0,0,0-1.018.63,1.338,1.338,0,0,0,0,1.26,1.163,1.163,0,0,0,1.018.63h3.694a.85.85,0,0,1,.816.691L115,69.049a4.9,4.9,0,0,0,1.6,2.688,4.332,4.332,0,0,0,2.811,1.042h9.6a4.327,4.327,0,0,0,2.828-1.048,4.9,4.9,0,0,0,1.595-2.714L135.6,58.995h0a1.329,1.329,0,0,0-.23-1.076,1.146,1.146,0,0,0-.932-.469Zm-3.3,11a2.355,2.355,0,0,1-.769,1.3,2.083,2.083,0,0,1-1.356.5h-9.6a2.086,2.086,0,0,1-1.354-.5,2.357,2.357,0,0,1-.769-1.3l-1.9-8.478h17.586Z" transform="translate(0 0)"/>
    <path id="Path_3" data-name="Path 3" d="M256.878,379.789a4.105,4.105,0,1,0,2.907,1.2,4.1,4.1,0,0,0-2.907-1.2Zm0,5.68a1.581,1.581,0,1,1,1.117-.462,1.581,1.581,0,0,1-1.117.462Z" transform="translate(-137.832 -306.067)"/>
  </g>
</svg>
