<svg xmlns="http://www.w3.org/2000/svg" width="200" height="136.368" viewBox="0 0 200 136.368">
  <g transform="translate(-92.4 -103.841)">
    <path id="Path_38" data-name="Path 38" d="M246.943,103.844a45.448,45.448,0,0,0-.91,90.887,63.425,63.425,0,0,1-44.543,18.2v27.275A90.914,90.914,0,0,0,292.4,149.3a45.457,45.457,0,0,0-45.457-45.457Zm-109.09,0a45.45,45.45,0,0,0-.91,90.891,63.43,63.43,0,0,1-44.543,18.2v27.275a90.91,90.91,0,0,0,90.906-90.91,45.45,45.45,0,0,0-45.453-45.453Z" fill-rule="evenodd"/>
  </g>
</svg>
