<svg xmlns="http://www.w3.org/2000/svg" width="60.103" height="57.308" viewBox="0 0 60.103 57.308">
  <g id="star" transform="translate(-103.602 -45.056)">
    <path id="Path_1" data-name="Path 1" d="M133.592,45.057a1.367,1.367,0,0,0-1.243.945l-6.434,19.94L104.97,65.9a1.366,1.366,0,0,0-.8,2.473l16.972,12.282-6.517,19.919h0a1.366,1.366,0,0,0,2.1,1.528L133.65,89.751,150.581,102.1h0a1.366,1.366,0,0,0,2.1-1.528l-6.517-19.919,16.972-12.282h0a1.366,1.366,0,0,0-.8-2.473l-20.946.041L134.949,46a1.366,1.366,0,0,0-1.357-.945Z" transform="translate(0)" fill-rule="evenodd"/>
  </g>
</svg>
